# Blender 4.5.5 LTS
# www.blender.org
o V_bridge_step_014
v -4.319393 18.180798 2.432463
v -4.319393 18.177540 2.597355
v -4.319393 18.381525 2.437542
v -4.319393 18.376680 2.602395
v -1.680606 18.180798 2.432463
v -1.680606 18.177540 2.597355
v -1.680606 18.381525 2.437542
v -1.680606 18.376680 2.602395
vn -1.0000 -0.0000 -0.0000
vn -0.0000 0.9996 0.0294
vn 1.0000 -0.0000 -0.0000
vn -0.0000 -0.9998 -0.0198
vn -0.0000 0.0253 -0.9997
vn -0.0000 -0.0253 0.9997
vt 0.375000 0.000000
vt 0.625000 0.000000
vt 0.625000 0.250000
vt 0.375000 0.250000
vt 0.625000 0.500000
vt 0.375000 0.500000
vt 0.625000 0.750000
vt 0.375000 0.750000
vt 0.625000 1.000000
vt 0.375000 1.000000
vt 0.125000 0.500000
vt 0.125000 0.750000
vt 0.875000 0.500000
vt 0.875000 0.750000
s 0
f 1/1/1 2/2/1 4/3/1 3/4/1
f 3/4/2 4/3/2 8/5/2 7/6/2
f 7/6/3 8/5/3 6/7/3 5/8/3
f 5/8/4 6/7/4 2/9/4 1/10/4
f 3/11/5 7/6/5 5/8/5 1/12/5
f 8/5/6 4/13/6 2/14/6 6/7/6
