# Blender 4.5.5 LTS
# www.blender.org
o V_bridge_step_005
v -4.319393 16.112673 2.511504
v -4.319393 16.129057 2.675612
v -4.319393 16.312576 2.492494
v -4.319393 16.327354 2.656755
v -1.680606 16.112673 2.511504
v -1.680606 16.129057 2.675612
v -1.680606 16.312578 2.492494
v -1.680606 16.327356 2.656755
vn -1.0000 -0.0000 -0.0000
vn -0.0000 0.9960 -0.0896
vn 1.0000 -0.0000 -0.0000
vn -0.0000 -0.9951 0.0993
vn -0.0000 -0.0947 -0.9955
vn -0.0000 0.0947 0.9955
vt 0.375000 0.000000
vt 0.625000 0.000000
vt 0.625000 0.250000
vt 0.375000 0.250000
vt 0.625000 0.500000
vt 0.375000 0.500000
vt 0.625000 0.750000
vt 0.375000 0.750000
vt 0.625000 1.000000
vt 0.375000 1.000000
vt 0.125000 0.500000
vt 0.125000 0.750000
vt 0.875000 0.500000
vt 0.875000 0.750000
s 0
f 1/1/1 2/2/1 4/3/1 3/4/1
f 3/4/2 4/3/2 8/5/2 7/6/2
f 7/6/3 8/5/3 6/7/3 5/8/3
f 5/8/4 6/7/4 2/9/4 1/10/4
f 3/11/5 7/6/5 5/8/5 1/12/5
f 8/5/6 4/13/6 2/14/6 6/7/6
