# Blender 4.5.5 LTS
# www.blender.org
o V_bridge_step_017
v -4.319393 18.870451 2.458410
v -4.319393 18.860830 2.623053
v -4.319393 19.070755 2.470871
v -4.319393 19.059750 2.635428
v -1.680606 18.870449 2.458410
v -1.680606 18.860828 2.623053
v -1.680606 19.070757 2.470871
v -1.680606 19.059752 2.635428
vn -1.0000 -0.0000 -0.0000
vn -0.0000 0.9978 0.0667
vn 1.0000 -0.0000 -0.0000
vn -0.0000 -0.9983 -0.0583
vn -0.0000 0.0621 -0.9981
vn -0.0000 -0.0621 0.9981
vt 0.375000 0.000000
vt 0.625000 0.000000
vt 0.625000 0.250000
vt 0.375000 0.250000
vt 0.625000 0.500000
vt 0.375000 0.500000
vt 0.625000 0.750000
vt 0.375000 0.750000
vt 0.625000 1.000000
vt 0.375000 1.000000
vt 0.125000 0.500000
vt 0.125000 0.750000
vt 0.875000 0.500000
vt 0.875000 0.750000
s 0
f 1/1/1 2/2/1 4/3/1 3/4/1
f 3/4/2 4/3/2 8/5/2 7/6/2
f 7/6/3 8/5/3 6/7/3 5/8/3
f 5/8/4 6/7/4 2/9/4 1/10/4
f 3/11/5 7/6/5 5/8/5 1/12/5
f 8/5/6 4/13/6 2/14/6 6/7/6
