# Blender 4.5.5 LTS
# www.blender.org
o V_bridge_step_001
v -4.319393 15.201314 2.641142
v -4.319393 15.227122 2.804034
v -4.319393 15.398250 2.609439
v -4.319393 15.425096 2.772163
v -1.680605 15.201314 2.641142
v -1.680605 15.227122 2.804034
v -1.680606 15.398250 2.609438
v -1.680606 15.425096 2.772163
vn -1.0000 -0.0000 -0.0000
vn -0.0000 0.9867 -0.1628
vn 1.0000 -0.0000 -0.0000
vn -0.0000 -0.9877 0.1565
vn -0.0000 -0.1589 -0.9873
vn -0.0000 0.1589 0.9873
vt 0.375000 0.000000
vt 0.625000 0.000000
vt 0.625000 0.250000
vt 0.375000 0.250000
vt 0.625000 0.500000
vt 0.375000 0.500000
vt 0.625000 0.750000
vt 0.375000 0.750000
vt 0.625000 1.000000
vt 0.375000 1.000000
vt 0.125000 0.500000
vt 0.125000 0.750000
vt 0.875000 0.500000
vt 0.875000 0.750000
s 0
f 1/1/1 2/2/1 4/3/1 3/4/1
f 3/4/2 4/3/2 8/5/2 7/6/2
f 7/6/3 8/5/3 6/7/3 5/8/3
f 5/8/4 6/7/4 2/9/4 1/10/4
f 3/11/5 7/6/5 5/8/5 1/12/5
f 8/5/6 4/13/6 2/14/6 6/7/6
