# Blender 4.5.5 LTS
# www.blender.org
o V_right_stair2_001
v 5.000001 21.329630 2.294095
v -0.999999 21.329626 2.294095
v 5.000001 21.529631 2.294095
v -0.999999 21.529627 2.294095
v -0.999999 21.329626 2.144095
v 5.000001 21.329630 2.144095
v -0.999999 21.529627 2.144095
v 5.000001 21.529631 2.144095
vn -0.0000 -0.0000 1.0000
vn -0.0000 -0.0000 -1.0000
vn -0.0000 -1.0000 -0.0000
vn -1.0000 -0.0000 -0.0000
vn -0.0000 1.0000 -0.0000
vn 1.0000 -0.0000 -0.0000
vt 0.000000 1.000000
vt 1.000000 1.000000
s 0
f 1/1/1 3/1/1 4/2/1 2/2/1
f 6/1/2 5/2/2 7/2/2 8/1/2
f 1/1/3 2/2/3 5/2/3 6/1/3
f 2/2/4 4/2/4 7/2/4 5/2/4
f 4/2/5 3/1/5 8/1/5 7/2/5
f 3/1/6 1/1/6 6/1/6 8/1/6
